Coordinates
version=1
nRows=8
nColumns=36
inDegrees=yes

Units are S.I. units (second, meters, Newtons, ...)
If the header above contains a line with 'inDegrees', this indicates whether rotational values are in degrees (yes) or radians (no).

endheader
time	pelvis_tilt	pelvis_list	pelvis_rotation	pelvis_tx	pelvis_ty	pelvis_tz	hip_flexion_r	hip_adduction_r	hip_rotation_r	knee_angle_r	knee_angle_r_beta	ankle_angle_r	subtalar_angle_r	mtp_angle_r	hip_flexion_l	hip_adduction_l	hip_rotation_l	knee_angle_l	knee_angle_l_beta	ankle_angle_l	subtalar_angle_l	mtp_angle_l	lumbar_extension	lumbar_bending	lumbar_rotation	arm_flex_r	arm_add_r	arm_rot_r	elbow_flex_r	pro_sup_r	arm_flex_l	arm_add_l	arm_rot_l	elbow_flex_l	pro_sup_l
      3.76666670	      1.45188940	     -1.38886291	      0.12406695	      0.65613972	      0.87258359	      0.04625366	     28.82269786	      4.66423794	     12.82228194	     53.25720879	      0.92951364	     18.89307565	    -28.64034765	     -7.49999987	     32.17475916	     -1.90177881	      8.39021833	     56.06851414	      0.97858018	     18.10075165	    -28.70637455	     -7.49999987	    -20.18707823	      4.94441123	     -1.63735436	     32.07622368	     -9.32274060	     26.07217444	    107.61971552	     96.09715767	     32.84487431	    -11.42490286	     25.95250979	    106.49288994	     83.80448991
      3.78333330	      1.88264532	     -1.24288047	      0.25745642	      0.65562022	      0.88883621	      0.04410806	     26.26576621	      3.87948324	     12.18599199	     49.16666941	      0.85812026	     16.59933555	    -29.08306663	     -7.49999987	     29.80395466	     -1.91808563	      7.82858187	     52.17751639	      0.91066946	     15.89496910	    -28.98859392	     -7.49999987	    -19.73495126	      4.76903873	     -1.67337821	     33.38599909	     -9.75521967	     25.65498190	    109.18565243	     96.01131995	     34.16895090	    -11.57950132	     25.56280218	    108.06058165	     84.22530283
      3.80000000	      2.00808401	     -1.09292319	      0.49599799	      0.65818988	      0.90275998	      0.04174322	     23.66604648	      2.90250766	     11.65123834	     44.68766049	      0.77994681	     14.81432208	    -28.15948310	     -7.49999987	     27.65656287	     -1.83115889	      7.44558392	     48.17579796	      0.84082629	     13.91632486	    -28.67394844	     -7.49999987	    -18.64591778	      4.68107285	     -1.57748332	     33.89496104	    -10.73473285	     25.04990488	    110.47693159	     96.26181328	     33.98710988	    -11.04915476	     24.49635821	    109.59211432	     84.37915741
      3.81666670	      2.06697507	     -0.99870741	      0.54115917	      0.66178266	      0.92255078	      0.04274416	     20.76291814	      2.03622263	     10.91747335	     39.23600697	      0.68479751	     12.23471495	    -26.91142400	     -7.49999987	     24.98514792	     -2.01501497	      6.73712672	     43.00325613	      0.75054841	     10.44897661	    -29.03339093	     -7.49999987	    -17.28765654	      4.40723052	     -1.82439051	     33.53393383	    -11.45737086	     24.58981570	    111.47253988	     99.88376857	     33.04133915	    -11.47957042	     22.98518424	    111.39983195	     86.76726484
      3.83333330	      2.13563949	     -0.94151975	      0.42990890	      0.66478186	      0.93993895	      0.04151590	     17.87302162	      1.16069646	      9.55748115	     33.92987703	      0.59218807	      9.69361018	    -24.66309756	     -7.49999987	     21.97326759	     -2.23446670	      6.10305184	     37.42435048	      0.65317814	      7.25189447	    -28.52131429	     -7.49999987	    -15.83201027	      4.01946540	     -1.94693552	     32.29672049	    -12.30176953	     23.79940354	    112.52362131	     99.11602549	     32.10972517	    -11.67238954	     21.92943735	    112.62742563	     86.46217282
      3.85000000	      1.90796927	     -0.73914913	      0.31589070	      0.66749497	      0.95169314	      0.04240629	     15.48438736	      0.22253189	      8.22158082	     28.81074797	      0.50284241	      7.43880480	    -21.92986897	     -7.49999987	     19.54733842	     -2.34152423	      4.97561331	     32.30380901	      0.56380783	      3.90143916	    -28.14222231	     -7.49999987	    -14.02630621	      3.38403773	     -2.23035376	     30.94135519	    -12.74793010	     22.72184693	    113.34158120	     99.37968311	     30.99765247	    -11.82722453	     20.64141325	    113.79510880	     86.41230901
      3.86666670	      1.57430802	     -0.38948751	      0.22743381	      0.67127657	      0.96390380	      0.04204137	     13.23152183	     -0.68551064	      7.07065523	     23.89752015	      0.41709041	      5.52235149	    -19.40713190	     -7.49999987	     17.15234349	     -2.16282671	      4.37100927	     27.26593412	      0.47588032	      1.01579964	    -27.69827633	     -7.49999987	    -12.01074714	      2.83309851	     -2.23401705	     29.65893086	    -13.34628197	     22.05126017	    114.20250118	     97.03382746	     29.78736931	    -11.92217558	     19.64596586	    115.00455417	     85.32974358
      3.88333330	      1.23098471	      0.04487833	      0.44827698	      0.67621824	      0.97639974	      0.04189844	     11.04068952	     -1.60824409	      4.81944562	     19.42066177	      0.33895449	      4.08068631	    -15.72181074	     -7.49999987	     14.70437677	     -1.80938757	      3.34069226	     22.03486758	      0.38458099	     -2.66378865	    -27.68300188	     -7.49999987	     -9.89753627	      2.30084534	     -2.19360038	     27.80661891	    -13.77133035	     20.79289589	    115.08552049	     98.66257539	     28.54137555	    -11.69204574	     18.93547109	    115.75439859	     85.05368173
